# xmcd CD database file
#
# Track frame offsets:
#	183
#	19950
#	37653
#	51443
#	67330
#	86135
#	103988
#	121798
#	137475
#	153215
#
# Disc length: 2289 seconds
#
# Revision: 0
# Processed by: cddbd v1.4PL0 Copyright (c) Steve Scherf et al.
# Submitted via: CDex 1.40Release
#
DISCID=8508ef0a
DTITLE=엄인호 - 엄인호 Sings the Blues
DYEAR=1990
DGENRE=Blues
TTITLE0=첫사랑
TTITLE1=갈등
TTITLE2=마틸다
TTITLE3=빨간 스웨터의 여자
TTITLE4=Blues for R.B
TTITLE5=달빛 아래 춤을
TTITLE6=그대없는 거리
TTITLE7=너의 맘속에 잊혀진 나는
TTITLE8='78, 가을편지
TTITLE9=Blues for R.B (연주곡)
EXTD=YEAR: 1990 ID3G: 0
EXTT0=
EXTT1=
EXTT2=
EXTT3=
EXTT4=
EXTT5=
EXTT6=
EXTT7=
EXTT8=
EXTT9=
PLAYORDER=
